HIERARCHY
ROOT Hips
{
	OFFSET 0.000000 0.000000 0.000000
	CHANNELS 6 Xposition Yposition Zposition Xrotation Yrotation Zrotation
	JOINT LeftUpLeg_virtual
	{
		OFFSET 0.000000 0.000000 0.000000
		CHANNELS 3 Xrotation Yrotation Zrotation
		JOINT LeftUpLeg
		{
			OFFSET 11.394100 -6.187798 -0.413800
			CHANNELS 3 Xrotation Yrotation Zrotation
			JOINT LeftLeg
			{
				OFFSET 0.430247 -32.302673 3.732800
				CHANNELS 3 Xrotation Yrotation Zrotation
				JOINT LeftFoot
				{
					OFFSET -0.430247 -48.264931 -6.423300
					CHANNELS 3 Xrotation Yrotation Zrotation
					JOINT LeftToeBase
					{
						OFFSET 4.230900 -16.068199 23.438400
						CHANNELS 3 Xrotation Yrotation Zrotation
						JOINT LeftToe_End
						{
							OFFSET 4.510700 0.695400 19.974600
							CHANNELS 3 Xrotation Yrotation Zrotation
							End Site
							{
								OFFSET 0 0 0
							}
						}
					}
				}
			}
		}
	}
	JOINT RightUpLeg_virtual
	{
		OFFSET 0.000000 0.000000 0.000000
		CHANNELS 3 Xrotation Yrotation Zrotation
		JOINT RightUpLeg
		{
			OFFSET -11.333700 -6.187798 -0.413800
			CHANNELS 3 Xrotation Yrotation Zrotation
			JOINT RightLeg
			{
				OFFSET -0.430392 -32.302628 3.733000
				CHANNELS 3 Xrotation Yrotation Zrotation
				JOINT RightFoot
				{
					OFFSET 0.430392 -48.264973 -6.423500
					CHANNELS 3 Xrotation Yrotation Zrotation
					JOINT RightToeBase
					{
						OFFSET -4.230900 -16.068199 23.438400
						CHANNELS 3 Xrotation Yrotation Zrotation
						JOINT RightToe_End
						{
							OFFSET -4.510700 0.695400 19.974600
							CHANNELS 3 Xrotation Yrotation Zrotation
							End Site
							{
								OFFSET 0 0 0
							}
						}
					}
				}
			}
		}
	}
	JOINT Spine_virtual
	{
		OFFSET 0.000000 0.000000 0.000000
		CHANNELS 3 Xrotation Yrotation Zrotation
		JOINT Spine
		{
			OFFSET -0.002400 12.777504 0.315300
			CHANNELS 3 Xrotation Yrotation Zrotation
			JOINT Spine1
			{
				OFFSET -0.002067 5.816869 0.032633
				CHANNELS 3 Xrotation Yrotation Zrotation
				JOINT Spine1_split
				{
					OFFSET -0.002067 5.816869 0.032633
					CHANNELS 3 Xrotation Yrotation Zrotation
					JOINT Spine2
					{
						OFFSET -0.002067 5.816869 0.032633
						CHANNELS 3 Xrotation Yrotation Zrotation
						JOINT Neck_virtual
						{
							OFFSET 0.000000 0.000000 0.000000
							CHANNELS 3 Xrotation Yrotation Zrotation
							JOINT Neck
							{
								OFFSET -0.003700 21.199493 -0.826900
								CHANNELS 3 Xrotation Yrotation Zrotation
								JOINT Head
								{
									OFFSET 0.000000 20.442200 4.834800
									CHANNELS 3 Xrotation Yrotation Zrotation
									JOINT HeadTop_End
									{
										OFFSET 0.000000 34.668396 4.968400
										CHANNELS 3 Xrotation Yrotation Zrotation
										End Site
										{
											OFFSET 0 0 0
										}
									}
								}
							}
						}
						JOINT LeftShoulder_virtual
						{
							OFFSET 0.000000 0.000000 0.000000
							CHANNELS 3 Xrotation Yrotation Zrotation
							JOINT LeftShoulder
							{
								OFFSET 3.288150 8.794197 -1.372250
								CHANNELS 3 Xrotation Yrotation Zrotation
								JOINT LeftShoulder_split
								{
									OFFSET 3.288150 8.794197 -1.372250
									CHANNELS 3 Xrotation Yrotation Zrotation
									JOINT LeftArm
									{
										OFFSET 11.953299 -2.279007 -0.146200
										CHANNELS 3 Xrotation Yrotation Zrotation
										JOINT LeftForeArm
										{
											OFFSET 18.448900 0.000000 0.000000
											CHANNELS 3 Xrotation Yrotation Zrotation
											JOINT LeftHand
											{
												OFFSET 29.527798 0.000000 0.000000
												CHANNELS 3 Xrotation Yrotation Zrotation
												End Site
												{
													OFFSET 0 0 0
												}
											}
										}
									}
								}
							}
						}
						JOINT RightShoulder_virtual
						{
							OFFSET 0.000000 0.000000 0.000000
							CHANNELS 3 Xrotation Yrotation Zrotation
							JOINT RightShoulder
							{
								OFFSET -3.249400 8.794197 -1.372250
								CHANNELS 3 Xrotation Yrotation Zrotation
								JOINT RightShoulder_split
								{
									OFFSET -3.249400 8.794197 -1.372250
									CHANNELS 3 Xrotation Yrotation Zrotation
									JOINT RightArm
									{
										OFFSET -11.953299 -2.279007 -0.146200
										CHANNELS 3 Xrotation Yrotation Zrotation
										JOINT RightForeArm
										{
											OFFSET -18.448900 0.000000 0.000000
											CHANNELS 3 Xrotation Yrotation Zrotation
											JOINT RightHand
											{
												OFFSET -29.527802 0.000000 0.000000
												CHANNELS 3 Xrotation Yrotation Zrotation
												End Site
												{
													OFFSET 0 0 0
												}
											}
										}
									}
								}
							}
						}
					}
				}
			}
		}
	}
}
MOTION
Frames: 4
Frame Time: 0.03333333
-0.023729 122.403885 3.115612 0.000000 0.000000 0.000000 7.722924 -40.256268 3.166865 -91.658229 -17.252313 21.616534 67.291577 0.725959 4.963990 24.987407 1.718404 0.273591 -2.408630 2.355467 -3.104012 0.000000 0.000000 0.000000 7.577042 -44.468326 2.659845 -135.976075 -32.534684 -12.150737 110.907430 18.013241 -14.066123 53.310480 9.299390 33.264056 8.879093 6.375462 -5.179771 0.000000 0.000000 0.000000 7.674729 -41.721258 2.288626 31.563267 -5.876744 -8.246436 12.958739 1.066909 -3.765868 0.519895 1.280247 1.152760 0.000000 0.000000 0.000000 12.859863 1.024974 -2.533829 -7.508944 18.230721 -13.580812 -26.804780 11.182721 4.966686 0.000000 0.000000 0.000000 14.079346 1.270379 -2.977117 13.095041 -17.847629 5.234540 1.320425 -4.221647 -3.191304 -59.050797 -10.081276 -6.325991 48.057194 -16.502601 29.648229 0.000000 0.000000 0.000000 14.828455 1.174834 -2.996179 18.673628 26.174065 -7.180920 0.284945 4.263738 2.356550 -35.813089 1.479252 8.474362 -43.121245 48.591414 33.175568 0.000000 0.000000 0.000000 
-0.006974 122.403038 3.105679 0.000000 0.000000 0.000000 7.686443 -40.519971 3.285495 -91.496927 -17.158632 21.756465 67.179234 0.685060 4.788573 24.814282 1.911199 0.096903 -2.385805 2.346602 -3.134281 0.000000 0.000000 0.000000 7.599043 -44.725274 2.794264 -135.532250 -32.563398 -12.099409 110.594498 18.196811 -14.043797 53.039322 9.088301 32.979517 8.825067 6.396927 -5.487069 0.000000 0.000000 0.000000 7.591932 -41.850843 2.374688 31.540345 -5.888571 -8.284312 12.927446 1.081542 -3.752010 0.471663 1.275995 1.167048 0.000000 0.000000 0.000000 12.897707 1.027981 -2.542553 -7.512044 18.244567 -13.590081 -26.623166 11.273830 4.818612 0.000000 0.000000 0.000000 14.044612 1.285751 -2.956704 12.821426 -17.919997 4.544048 1.480656 -4.314435 -3.454313 -58.238264 -9.485864 -6.204188 47.913350 -16.406017 29.381951 0.000000 0.000000 0.000000 14.806250 1.156557 -3.007156 18.186386 26.571492 -6.174262 0.276547 4.352496 2.337329 -34.725450 1.346906 8.412074 -43.236242 48.340937 33.096737 0.000000 0.000000 0.000000 
-0.006736 122.401672 3.111908 0.000000 0.000000 0.000000 7.729010 -40.689452 3.429698 -91.292377 -17.095595 21.832157 66.994512 0.593213 4.605653 24.519600 2.165556 -0.066904 -2.382268 2.322025 -3.123069 0.000000 0.000000 0.000000 7.673846 -44.883639 2.942351 -135.078725 -32.536904 -12.012868 110.335176 18.362870 -14.029247 52.709827 8.894637 32.732442 8.740795 6.412413 -5.761334 0.000000 0.000000 0.000000 7.557269 -41.975563 2.488259 31.459892 -5.892056 -8.304370 12.879871 1.093241 -3.741844 0.442347 1.257673 1.185841 0.000000 0.000000 0.000000 12.911415 1.035252 -2.560577 -7.448287 18.254978 -13.615698 -26.399461 11.378023 4.700762 0.000000 0.000000 0.000000 14.003321 1.300881 -2.940957 12.594492 -17.913715 3.952385 1.545418 -4.424750 -3.736189 -57.318025 -8.655925 -5.930307 47.762020 -16.444551 29.185033 0.000000 0.000000 0.000000 14.771409 1.143946 -3.021005 17.741761 26.905329 -5.302998 0.265686 4.406681 2.391780 -33.784376 0.990034 8.234813 -43.319816 47.992252 32.964395 0.000000 0.000000 0.000000 
-0.023143 122.410751 3.103252 0.000000 0.000000 0.000000 7.833895 -40.739900 3.595488 -91.044946 -17.074539 21.829273 66.754116 0.468908 4.422058 24.142345 2.477334 -0.205844 -2.400943 2.286024 -3.073606 0.000000 0.000000 0.000000 7.786989 -44.951568 3.110452 -134.637918 -32.462113 -11.944396 110.117888 18.514824 -14.012166 52.331977 8.747533 32.532317 8.632436 6.425939 -5.998822 0.000000 0.000000 0.000000 7.556062 -42.084945 2.632462 31.337926 -5.896571 -8.310511 12.829184 1.100319 -3.737339 0.446951 1.253349 1.245123 0.000000 0.000000 0.000000 12.905734 1.046375 -2.586653 -7.353168 18.252941 -13.638103 -26.146458 11.478670 4.630694 0.000000 0.000000 0.000000 13.958348 1.315172 -2.932686 12.401903 -17.838979 3.409379 1.493777 -4.494839 -4.027172 -56.304582 -7.564966 -5.572175 47.679642 -16.665264 29.118234 0.000000 0.000000 0.000000 14.725227 1.137272 -3.034331 17.343582 27.175690 -4.536860 0.276628 4.423468 2.510447 -33.053768 0.603524 8.012400 -43.283254 47.512497 32.697202 0.000000 0.000000 0.000000 
